<?xml version="1.0" encoding="UTF-8" standalone="no"?>
<!-- Created with Inkscape (http://www.inkscape.org/) -->

<svg
   width="210mm"
   height="297mm"
   viewBox="0 0 210 297"
   version="1.1"
   id="svg5"
   inkscape:version="1.1 (c4e8f9e, 2021-05-24)"
   sodipodi:docname="Figure6_edit_labels.svg"
   xmlns:inkscape="http://www.inkscape.org/namespaces/inkscape"
   xmlns:sodipodi="http://sodipodi.sourceforge.net/DTD/sodipodi-0.dtd"
   xmlns="http://www.w3.org/2000/svg"
   xmlns:svg="http://www.w3.org/2000/svg">
  <sodipodi:namedview
     id="namedview7"
     pagecolor="#ffffff"
     bordercolor="#666666"
     borderopacity="1.0"
     inkscape:pageshadow="2"
     inkscape:pageopacity="0.0"
     inkscape:pagecheckerboard="0"
     inkscape:document-units="mm"
     showgrid="false"
     inkscape:zoom="1.6764786"
     inkscape:cx="387.41921"
     inkscape:cy="483.45384"
     inkscape:window-width="1312"
     inkscape:window-height="847"
     inkscape:window-x="0"
     inkscape:window-y="25"
     inkscape:window-maximized="0"
     inkscape:current-layer="g207" />
  <defs
     id="defs2">
    <clipPath
       clipPathUnits="userSpaceOnUse"
       id="clipPath61">
      <path
         d="M 33.34,0 H 542.66 V 288 H 33.34 Z"
         id="path59" />
    </clipPath>
    <clipPath
       clipPathUnits="userSpaceOnUse"
       id="clipPath71">
      <path
         d="m 43.75,148.11 h 117.2 v 117.2 H 43.75 Z"
         id="path69" />
    </clipPath>
    <clipPath
       clipPathUnits="userSpaceOnUse"
       id="clipPath99">
      <path
         d="m 43.75,8.22 h 117.2 v 117.2 H 43.75 Z"
         id="path97" />
    </clipPath>
    <clipPath
       clipPathUnits="userSpaceOnUse"
       id="clipPath127">
      <path
         d="m 166.43,148.11 h 117.2 v 117.2 h -117.2 z"
         id="path125" />
    </clipPath>
    <clipPath
       clipPathUnits="userSpaceOnUse"
       id="clipPath155">
      <path
         d="m 166.43,8.22 h 117.2 v 117.2 h -117.2 z"
         id="path153" />
    </clipPath>
    <clipPath
       clipPathUnits="userSpaceOnUse"
       id="clipPath183">
      <path
         d="m 289.12,148.11 h 117.2 v 117.2 h -117.2 z"
         id="path181" />
    </clipPath>
    <clipPath
       clipPathUnits="userSpaceOnUse"
       id="clipPath211">
      <path
         d="m 289.12,8.22 h 117.2 v 117.2 h -117.2 z"
         id="path209" />
    </clipPath>
    <clipPath
       clipPathUnits="userSpaceOnUse"
       id="clipPath239">
      <path
         d="m 43.75,125.42 h 117.2 v 17.21 H 43.75 Z"
         id="path237" />
    </clipPath>
    <clipPath
       clipPathUnits="userSpaceOnUse"
       id="clipPath247">
      <path
         d="m 43.75,125.42 h 117.2 v 17.21 H 43.75 Z"
         id="path245" />
    </clipPath>
    <clipPath
       clipPathUnits="userSpaceOnUse"
       id="clipPath259">
      <path
         d="m 43.75,125.42 h 117.2 v 17.21 H 43.75 Z"
         id="path257" />
    </clipPath>
    <clipPath
       clipPathUnits="userSpaceOnUse"
       id="clipPath267">
      <path
         d="m 43.75,125.42 h 117.2 v 17.21 H 43.75 Z"
         id="path265" />
    </clipPath>
    <clipPath
       clipPathUnits="userSpaceOnUse"
       id="clipPath277">
      <path
         d="m 166.43,125.42 h 117.2 v 17.21 h -117.2 z"
         id="path275" />
    </clipPath>
    <clipPath
       clipPathUnits="userSpaceOnUse"
       id="clipPath285">
      <path
         d="m 166.43,125.42 h 117.2 v 17.21 h -117.2 z"
         id="path283" />
    </clipPath>
    <clipPath
       clipPathUnits="userSpaceOnUse"
       id="clipPath297">
      <path
         d="m 166.43,125.42 h 117.2 v 17.21 h -117.2 z"
         id="path295" />
    </clipPath>
    <clipPath
       clipPathUnits="userSpaceOnUse"
       id="clipPath305">
      <path
         d="m 166.43,125.42 h 117.2 v 17.21 h -117.2 z"
         id="path303" />
    </clipPath>
    <clipPath
       clipPathUnits="userSpaceOnUse"
       id="clipPath315">
      <path
         d="m 289.12,125.42 h 117.2 v 17.21 h -117.2 z"
         id="path313" />
    </clipPath>
    <clipPath
       clipPathUnits="userSpaceOnUse"
       id="clipPath323">
      <path
         d="m 289.12,125.42 h 117.2 v 17.21 h -117.2 z"
         id="path321" />
    </clipPath>
    <clipPath
       clipPathUnits="userSpaceOnUse"
       id="clipPath335">
      <path
         d="m 289.12,125.42 h 117.2 v 17.21 h -117.2 z"
         id="path333" />
    </clipPath>
    <clipPath
       clipPathUnits="userSpaceOnUse"
       id="clipPath343">
      <path
         d="m 289.12,125.42 h 117.2 v 17.21 h -117.2 z"
         id="path341" />
    </clipPath>
    <clipPath
       clipPathUnits="userSpaceOnUse"
       id="clipPath353">
      <path
         d="m 43.75,265.31 h 117.2 v 17.21 H 43.75 Z"
         id="path351" />
    </clipPath>
    <clipPath
       clipPathUnits="userSpaceOnUse"
       id="clipPath361">
      <path
         d="m 43.75,265.31 h 117.2 v 17.21 H 43.75 Z"
         id="path359" />
    </clipPath>
    <clipPath
       clipPathUnits="userSpaceOnUse"
       id="clipPath373">
      <path
         d="m 43.75,265.31 h 117.2 v 17.21 H 43.75 Z"
         id="path371" />
    </clipPath>
    <clipPath
       clipPathUnits="userSpaceOnUse"
       id="clipPath381">
      <path
         d="m 43.75,265.31 h 117.2 v 17.21 H 43.75 Z"
         id="path379" />
    </clipPath>
    <clipPath
       clipPathUnits="userSpaceOnUse"
       id="clipPath391">
      <path
         d="m 166.43,265.31 h 117.2 v 17.21 h -117.2 z"
         id="path389" />
    </clipPath>
    <clipPath
       clipPathUnits="userSpaceOnUse"
       id="clipPath399">
      <path
         d="m 166.43,265.31 h 117.2 v 17.21 h -117.2 z"
         id="path397" />
    </clipPath>
    <clipPath
       clipPathUnits="userSpaceOnUse"
       id="clipPath411">
      <path
         d="m 166.43,265.31 h 117.2 v 17.21 h -117.2 z"
         id="path409" />
    </clipPath>
    <clipPath
       clipPathUnits="userSpaceOnUse"
       id="clipPath419">
      <path
         d="m 166.43,265.31 h 117.2 v 17.21 h -117.2 z"
         id="path417" />
    </clipPath>
    <clipPath
       clipPathUnits="userSpaceOnUse"
       id="clipPath429">
      <path
         d="m 289.12,265.31 h 117.2 v 17.21 h -117.2 z"
         id="path427" />
    </clipPath>
    <clipPath
       clipPathUnits="userSpaceOnUse"
       id="clipPath437">
      <path
         d="m 289.12,265.31 h 117.2 v 17.21 h -117.2 z"
         id="path435" />
    </clipPath>
    <clipPath
       clipPathUnits="userSpaceOnUse"
       id="clipPath449">
      <path
         d="m 289.12,265.31 h 117.2 v 17.21 h -117.2 z"
         id="path447" />
    </clipPath>
    <clipPath
       clipPathUnits="userSpaceOnUse"
       id="clipPath457">
      <path
         d="m 289.12,265.31 h 117.2 v 17.21 h -117.2 z"
         id="path455" />
    </clipPath>
  </defs>
  <g
     inkscape:label="Layer 1"
     inkscape:groupmode="layer"
     id="layer1">
    <g
       id="g15"
       inkscape:label="figure6_habitatloss_gain_2fold_byregion"
       transform="matrix(0.35277777,0,0,-0.35277777,-0.824139,179.7583)">
      <g
         id="g17" />
      <g
         id="g19" />
      <g
         id="g21" />
      <g
         id="g23" />
      <g
         id="g25" />
      <g
         id="g27" />
      <g
         id="g29" />
      <g
         id="g31" />
      <g
         id="g33" />
      <g
         id="g35" />
      <g
         id="g37" />
      <g
         id="g39" />
      <g
         id="g41" />
      <g
         id="g43" />
      <g
         id="g45" />
      <g
         id="g47" />
      <g
         id="g49" />
      <g
         id="g51" />
      <g
         id="g53" />
      <g
         id="g55">
        <g
           id="g57"
           clip-path="url(#clipPath61)" />
      </g>
      <g
         id="g63" />
      <g
         id="g65">
        <g
           id="g67"
           clip-path="url(#clipPath71)">
          <path
             d="m 102.35,206.71 v 1.62 1.61 1.62 1.62 1.61 1.62 1.62 1.61 l -0.01,1.62 v 1.62 1.61 1.62 1.62 1.61 1.62 1.62 1.61 1.62 l -0.01,1.62 v 1.61 1.62 1.62 1.61 1.62 1.61 1.62 1.62 1.61 l -0.01,1.62 -1.58,-0.03 -1.59,-0.08 -1.58,-0.13 -1.57,-0.19 -1.57,-0.24 -1.56,-0.3 -1.55,-0.35 -1.53,-0.39 -1.53,-0.46 -1.5,-0.5 -1.49,-0.55 -1.47,-0.6 -1.44,-0.66 -1.43,-0.7 -1.39,-0.75 -1.38,-0.79 0.84,-1.39 0.83,-1.38 0.84,-1.39 0.83,-1.38 0.83,-1.39 0.84,-1.38 0.83,-1.39 0.84,-1.38 0.83,-1.38 0.83,-1.39 0.84,-1.38 0.83,-1.39 0.84,-1.38 0.83,-1.39 0.84,-1.38 0.83,-1.39 0.83,-1.38 0.84,-1.39 0.83,-1.38 0.84,-1.39 0.83,-1.38 0.83,-1.39 0.84,-1.38 0.83,-1.39 0.84,-1.38 0.83,-1.39 0.84,-1.38 0.83,-1.38 z"
             style="fill:#641a80;fill-opacity:1;fill-rule:nonzero;stroke:none"
             id="path73" />
          <path
             d="m 102.35,206.71 -0.83,1.39 -0.83,1.38 -0.84,1.38 -0.83,1.39 -0.84,1.38 -0.83,1.39 -0.84,1.38 -0.83,1.39 -0.83,1.38 -0.84,1.39 -0.83,1.38 -0.84,1.39 -0.83,1.38 -0.83,1.39 -0.84,1.38 -0.83,1.39 -0.84,1.38 -0.83,1.39 -0.84,1.38 -0.83,1.39 -0.83,1.38 -0.84,1.38 -0.83,1.39 -0.84,1.38 -0.83,1.39 -0.83,1.38 -0.84,1.39 -0.83,1.38 -0.84,1.39 -1.35,-0.85 -1.32,-0.89 -1.29,-0.93 -1.26,-0.98 -1.22,-1.02 -1.19,-1.06 -1.15,-1.1 -1.11,-1.14 -1.08,-1.18 -1.03,-1.21 -0.99,-1.25 -0.95,-1.28 -0.9,-1.31 -0.86,-1.34 -0.82,-1.37 -0.76,-1.4 -0.72,-1.42 -0.67,-1.45 -0.62,-1.46 -0.57,-1.49 -0.52,-1.51 -0.47,-1.52 -0.41,-1.54 -0.37,-1.55 -0.31,-1.56 -0.25,-1.57 -0.21,-1.58 -0.15,-1.59 -0.09,-1.59 -0.04,-1.59 0.01,-1.6 0.06,-1.59 0.12,-1.59 0.18,-1.58 0.23,-1.58 0.28,-1.56 0.33,-1.56 0.39,-1.55 0.44,-1.53 0.49,-1.51 0.55,-1.5 0.59,-1.48 0.64,-1.46 0.7,-1.43 0.74,-1.41 0.78,-1.39 0.84,-1.35 0.88,-1.33 0.93,-1.3 0.96,-1.26 1.01,-1.23 1.06,-1.2 1.09,-1.16 1.13,-1.12 1.17,-1.08 1.2,-1.05 1.24,-1 1.28,-0.96 1.3,-0.91 1.34,-0.87 1.36,-0.82 1.39,-0.78 1.42,-0.73 1.44,-0.68 1.46,-0.63 1.48,-0.58 1.5,-0.53 1.52,-0.48 1.54,-0.43 1.55,-0.37 1.56,-0.33 1.57,-0.27 1.58,-0.21 1.58,-0.16 1.59,-0.11 1.59,-0.05 h 1.6 l 1.59,0.05 1.59,0.11 1.58,0.16 1.58,0.22 1.57,0.27 1.56,0.32 1.55,0.38 1.53,0.43 1.52,0.48 1.5,0.53 1.49,0.58 1.46,0.63 1.44,0.68 1.41,0.73 1.39,0.78 1.37,0.83 1.33,0.87 1.31,0.91 1.27,0.96 1.24,1 1.2,1.05 1.17,1.08 1.13,1.12 1.09,1.16 1.05,1.2 1.01,1.23 0.97,1.27 0.92,1.29 0.88,1.33 0.84,1.36 0.79,1.38 0.74,1.42 0.69,1.43 0.64,1.46 0.59,1.48 0.54,1.5 0.49,1.51 0.44,1.53 0.39,1.55 0.33,1.56 0.28,1.56 0.23,1.58 0.18,1.58 0.12,1.59 0.06,1.59 0.01,1.6 -0.04,1.59 -0.1,1.59 -0.15,1.59 -0.2,1.58 -0.26,1.57 -0.31,1.56 -0.37,1.55 -0.41,1.54 -0.47,1.52 -0.52,1.51 -0.57,1.48 -0.62,1.47 -0.67,1.45 -0.72,1.42 -0.77,1.39 -0.81,1.37 -0.86,1.34 -0.91,1.31 -0.95,1.28 -0.99,1.25 -1.04,1.21 -1.07,1.18 -1.11,1.14 -1.16,1.1 -1.19,1.06 -1.22,1.02 -1.26,0.97 -1.29,0.94 -1.32,0.89 -1.35,0.84 -0.83,-1.38 -0.84,-1.39 -0.83,-1.38 -0.83,-1.39 -0.84,-1.38 -0.83,-1.39 -0.83,-1.38 -0.84,-1.39 -0.83,-1.38 -0.83,-1.39 -0.84,-1.38 -0.83,-1.39 -0.83,-1.39 -0.84,-1.38 -0.83,-1.39 -0.83,-1.38 -0.84,-1.39 -0.83,-1.38 -0.83,-1.39 -0.84,-1.38 -0.83,-1.39 -0.83,-1.38 -0.84,-1.39 -0.83,-1.38 -0.83,-1.39 -0.84,-1.38 -0.83,-1.39 -0.83,-1.38 z"
             style="fill:#f0f0f0;fill-opacity:1;fill-rule:nonzero;stroke:none"
             id="path75" />
          <path
             d="m 102.35,206.71 0.84,1.39 0.83,1.38 0.83,1.39 0.84,1.38 0.83,1.39 0.83,1.38 0.84,1.39 0.83,1.38 0.83,1.39 0.84,1.38 0.83,1.39 0.83,1.38 0.84,1.39 0.83,1.38 0.83,1.39 0.84,1.38 0.83,1.39 0.83,1.39 0.84,1.38 0.83,1.39 0.83,1.38 0.84,1.39 0.83,1.38 0.83,1.39 0.84,1.38 0.83,1.39 0.83,1.38 0.84,1.39 0.83,1.38 -1.37,0.8 -1.4,0.75 -1.43,0.7 -1.44,0.65 -1.47,0.6 -1.49,0.55 -1.5,0.5 -1.53,0.45 -1.53,0.4 -1.55,0.35 -1.56,0.29 -1.57,0.24 -1.57,0.19 -1.59,0.13 -1.58,0.08 -1.59,0.03 v -1.62 -1.61 -1.62 -1.62 -1.61 -1.62 -1.61 -1.62 -1.62 -1.61 -1.62 -1.62 -1.61 -1.62 -1.62 -1.61 -1.62 -1.62 -1.61 -1.62 -1.62 -1.61 -1.62 -1.62 -1.61 -1.62 -1.62 -1.61 z"
             style="fill:#f76f5c;fill-opacity:1;fill-rule:nonzero;stroke:none"
             id="path77" />
          <text
             transform="scale(1,-1)"
             style="font-variant:normal;font-weight:normal;font-size:6px;font-family:Helvetica;-inkscape-font-specification:Helvetica;writing-mode:lr-tb;fill:#000000;fill-opacity:1;fill-rule:nonzero;stroke:none"
             id="text81"
             x="79.860001"
             y="-255.26001"><tspan
               x="79.860001 83.195999 84.863998 88.199997 91.536003"
               y="-255.26001"
               sodipodi:role="line"
               id="tspan79">8.62%</tspan></text>
          <text
             transform="scale(1,-1)"
             style="font-variant:normal;font-weight:normal;font-size:6px;font-family:Helvetica;-inkscape-font-specification:Helvetica;writing-mode:lr-tb;fill:#000000;fill-opacity:1;fill-rule:nonzero;stroke:none"
             id="text85"
             x="94.650002"
             y="-184.49001"><tspan
               x="94.650002 97.986 101.322 102.99 106.326 109.662"
               y="-184.49001"
               sodipodi:role="line"
               id="tspan83">82.76%</tspan></text>
          <text
             transform="scale(1,-1)"
             style="font-variant:normal;font-weight:normal;font-size:6px;font-family:Helvetica;-inkscape-font-specification:Helvetica;writing-mode:lr-tb;fill:#000000;fill-opacity:1;fill-rule:nonzero;stroke:none"
             id="text89"
             x="113.12"
             y="-254.96001"><tspan
               x="113.12 116.456 118.124 121.46 124.796"
               y="-254.96001"
               sodipodi:role="line"
               id="tspan87">8.62%</tspan></text>
        </g>
      </g>
      <g
         id="g91" />
      <g
         id="g93">
        <g
           id="g95"
           clip-path="url(#clipPath99)">
          <path
             d="m 102.35,66.82 v 1.62 1.61 1.62 1.62 1.61 1.62 1.62 1.61 l -0.01,1.62 v 1.62 1.61 1.62 1.62 1.61 1.62 1.62 1.61 1.62 l -0.01,1.62 v 1.61 1.62 1.61 1.62 1.62 1.61 1.62 1.62 1.61 l -0.01,1.62 -1.6,-0.03 -1.59,-0.08 -1.6,-0.14 -1.59,-0.19 -1.58,-0.25 -1.57,-0.3 -1.56,-0.35 -1.55,-0.41 -1.53,-0.45 -1.52,-0.52 -1.5,-0.56 -1.48,-0.61 -1.46,-0.66 -1.43,-0.72 -1.41,-0.76 -1.38,-0.81 -1.35,-0.85 -1.32,-0.91 -1.29,-0.94 -1.26,-0.99 -1.23,-1.03 -1.18,-1.08 -1.15,-1.11 1.14,-1.14 1.14,-1.14 1.15,-1.15 1.14,-1.14 1.14,-1.14 1.15,-1.14 1.14,-1.15 1.15,-1.14 1.14,-1.14 1.14,-1.14 1.15,-1.15 1.14,-1.14 1.14,-1.14 1.15,-1.14 1.14,-1.15 1.15,-1.14 1.14,-1.14 1.14,-1.14 1.15,-1.15 1.14,-1.14 1.14,-1.14 1.15,-1.14 1.14,-1.15 1.15,-1.14 1.14,-1.14 1.14,-1.14 1.15,-1.14 1.14,-1.15 z"
             style="fill:#641a80;fill-opacity:1;fill-rule:nonzero;stroke:none"
             id="path101" />
          <path
             d="m 102.35,66.82 -1.14,1.14 -1.14,1.15 -1.15,1.14 -1.14,1.14 -1.14,1.14 -1.15,1.14 -1.14,1.15 -1.15,1.14 -1.14,1.14 -1.14,1.14 -1.15,1.15 -1.14,1.14 -1.14,1.14 -1.15,1.14 -1.14,1.15 -1.15,1.14 -1.14,1.14 -1.14,1.14 -1.15,1.15 -1.14,1.14 -1.14,1.14 -1.15,1.14 -1.14,1.15 -1.15,1.14 -1.14,1.14 -1.14,1.14 -1.15,1.15 -1.14,1.14 -1.14,1.14 -1.11,-1.15 -1.07,-1.18 -1.03,-1.22 -0.99,-1.26 -0.94,-1.29 -0.9,-1.32 -0.85,-1.35 -0.81,-1.38 -0.75,-1.4 -0.72,-1.43 -0.66,-1.45 -0.61,-1.48 -0.56,-1.49 -0.51,-1.51 -0.46,-1.53 -0.4,-1.55 -0.36,-1.55 -0.3,-1.57 -0.24,-1.58 -0.19,-1.58 -0.14,-1.59 -0.09,-1.6 -0.03,-1.59 0.03,-1.6 0.08,-1.6 0.13,-1.59 0.19,-1.58 0.24,-1.58 0.29,-1.57 0.35,-1.56 0.4,-1.54 0.46,-1.53 0.5,-1.52 0.56,-1.49 0.6,-1.48 0.66,-1.45 0.71,-1.44 0.75,-1.4 0.8,-1.38 0.85,-1.36 0.89,-1.32 0.94,-1.29 0.99,-1.26 1.02,-1.22 1.06,-1.19 1.11,-1.15 1.14,-1.12 1.18,-1.07 1.22,-1.04 1.25,-0.99 1.29,-0.95 1.31,-0.9 1.35,-0.86 1.37,-0.81 1.4,-0.76 1.43,-0.72 1.45,-0.67 1.47,-0.62 1.49,-0.57 1.52,-0.51 1.52,-0.47 1.54,-0.41 1.56,-0.36 1.57,-0.3 1.57,-0.26 1.59,-0.2 1.59,-0.14 1.59,-0.09 1.6,-0.04 1.59,0.02 1.6,0.07 1.59,0.13 1.59,0.18 1.57,0.23 1.57,0.29 1.56,0.34 1.55,0.39 1.53,0.45 1.52,0.5 1.5,0.55 1.48,0.6 1.46,0.65 1.43,0.7 1.41,0.75 1.38,0.79 1.36,0.85 1.33,0.89 1.29,0.93 1.27,0.97 1.22,1.02 1.2,1.06 1.15,1.1 1.12,1.14 1.08,1.18 1.04,1.21 1,1.25 0.95,1.28 0.91,1.31 -1.34,0.9 -1.35,0.9 -1.34,0.9 -1.35,0.89 -1.34,0.9 -1.34,0.9 -1.35,0.9 -1.34,0.9 -1.35,0.9 -1.34,0.89 -1.34,0.9 -1.35,0.9 -1.34,0.9 -1.35,0.9 -1.34,0.89 -1.34,0.9 -1.35,0.9 -1.34,0.9 -1.35,0.9 -1.34,0.9 -1.34,0.89 -1.35,0.9 -1.34,0.9 -1.35,0.9 -1.34,0.9 -1.34,0.9 -1.35,0.89 -1.34,0.9 z"
             style="fill:#f0f0f0;fill-opacity:1;fill-rule:nonzero;stroke:none"
             id="path103" />
          <path
             d="m 102.35,66.82 1.35,-0.9 1.34,-0.9 1.35,-0.89 1.34,-0.9 1.34,-0.9 1.35,-0.9 1.34,-0.9 1.35,-0.9 1.34,-0.89 1.34,-0.9 1.35,-0.9 1.34,-0.9 1.35,-0.9 1.34,-0.9 1.34,-0.89 1.35,-0.9 1.34,-0.9 1.35,-0.9 1.34,-0.9 1.34,-0.89 1.35,-0.9 1.34,-0.9 1.35,-0.9 1.34,-0.9 1.34,-0.9 1.35,-0.89 1.34,-0.9 1.35,-0.9 1.34,-0.9 0.87,1.35 0.82,1.38 0.78,1.41 0.73,1.43 0.67,1.46 0.63,1.48 0.58,1.5 0.52,1.52 0.47,1.54 0.42,1.55 0.36,1.57 0.32,1.57 0.25,1.59 0.21,1.59 0.14,1.6 0.1,1.61 0.03,1.6 -0.01,1.61 -0.08,1.61 -0.12,1.6 -0.19,1.6 -0.23,1.59 -0.29,1.58 -0.35,1.57 -0.4,1.55 -0.45,1.55 -0.51,1.52 -0.55,1.51 -0.61,1.49 -0.66,1.46 -0.71,1.45 -0.75,1.41 -0.81,1.39 -0.85,1.37 -0.9,1.33 -0.95,1.3 -0.99,1.27 -1.03,1.23 -1.07,1.2 -1.11,1.16 -1.15,1.12 -1.19,1.08 -1.23,1.03 -1.26,1 -1.3,0.95 -1.32,0.91 -1.36,0.86 -1.39,0.82 -1.41,0.76 -1.44,0.72 -1.46,0.67 -1.48,0.62 -1.51,0.56 -1.52,0.52 -1.54,0.46 -1.55,0.41 -1.57,0.35 -1.58,0.3 -1.59,0.25 -1.59,0.19 -1.6,0.14 -1.61,0.08 -1.61,0.03 v -1.62 -1.61 -1.62 -1.62 -1.61 V 104 102.38 100.77 99.15 97.54 95.92 94.3 92.69 91.07 89.45 87.84 86.22 84.6 82.99 81.37 79.75 78.14 76.52 74.9 73.29 71.67 70.05 68.44 Z"
             style="fill:#f76f5c;fill-opacity:1;fill-rule:nonzero;stroke:none"
             id="path105" />
          <text
             transform="scale(1,-1)"
             style="font-variant:normal;font-weight:normal;font-size:6px;font-family:Helvetica;-inkscape-font-specification:Helvetica;writing-mode:lr-tb;fill:#000000;fill-opacity:1;fill-rule:nonzero;stroke:none"
             id="text109"
             x="74.120003"
             y="-112.48"><tspan
               x="74.120003 77.456001 80.792 82.459999 85.795998"
               y="-112.48"
               sodipodi:role="line"
               id="tspan107">12.5%</tspan></text>
          <text
             transform="scale(1,-1)"
             style="font-variant:normal;font-weight:normal;font-size:6px;font-family:Helvetica;-inkscape-font-specification:Helvetica;writing-mode:lr-tb;fill:#000000;fill-opacity:1;fill-rule:nonzero;stroke:none"
             id="text113"
             x="76.330002"
             y="-45.98"><tspan
               x="76.330002 79.666 83.001999 84.669998 88.005997 91.342003"
               y="-45.98"
               sodipodi:role="line"
               id="tspan111">53.12%</tspan></text>
          <text
             transform="scale(1,-1)"
             style="font-variant:normal;font-weight:normal;font-size:6px;font-family:Helvetica;-inkscape-font-specification:Helvetica;writing-mode:lr-tb;fill:#000000;fill-opacity:1;fill-rule:nonzero;stroke:none"
             id="text117"
             x="139.2"
             y="-96.559998"><tspan
               x="139.2 142.53601 145.87201 147.54001 150.87601 154.21201"
               y="-96.559998"
               sodipodi:role="line"
               id="tspan115">34.38%</tspan></text>
        </g>
      </g>
      <g
         id="g119" />
      <g
         id="g121">
        <g
           id="g123"
           clip-path="url(#clipPath127)">
          <path
             d="m 225.04,206.71 -0.01,1.62 v 1.61 1.62 1.62 1.61 1.62 1.62 1.61 1.62 l -0.01,1.62 v 1.61 1.62 1.62 1.61 1.62 1.62 1.61 1.62 1.62 l -0.01,1.61 v 1.62 1.62 1.61 1.62 1.61 1.62 1.62 1.61 1.62 l -1.67,-0.03 -1.66,-0.09 -1.66,-0.15 -1.65,-0.21 -1.65,-0.26 -1.63,-0.33 -1.62,-0.38 -1.61,-0.44 -1.59,-0.49 -1.57,-0.56 -1.55,-0.6 -1.52,-0.67 -1.51,-0.71 0.72,-1.45 0.72,-1.45 0.73,-1.44 0.72,-1.45 0.72,-1.45 0.72,-1.44 0.72,-1.45 0.72,-1.45 0.72,-1.44 0.72,-1.45 0.72,-1.45 0.73,-1.44 0.72,-1.45 0.72,-1.45 0.72,-1.44 0.72,-1.45 0.72,-1.45 0.72,-1.44 0.72,-1.45 0.72,-1.45 0.73,-1.44 0.72,-1.45 0.72,-1.45 0.72,-1.45 0.72,-1.44 0.72,-1.45 0.72,-1.45 0.72,-1.44 z"
             style="fill:#641a80;fill-opacity:1;fill-rule:nonzero;stroke:none"
             id="path129" />
          <path
             d="m 225.04,206.71 -0.73,1.45 -0.72,1.44 -0.72,1.45 -0.72,1.45 -0.72,1.44 -0.72,1.45 -0.72,1.45 -0.72,1.45 -0.73,1.44 -0.72,1.45 -0.72,1.45 -0.72,1.44 -0.72,1.45 -0.72,1.45 -0.72,1.44 -0.72,1.45 -0.72,1.45 -0.73,1.44 -0.72,1.45 -0.72,1.45 -0.72,1.44 -0.72,1.45 -0.72,1.45 -0.72,1.44 -0.72,1.45 -0.72,1.45 -0.73,1.44 -0.72,1.45 -0.72,1.45 -1.41,-0.74 -1.39,-0.78 -1.36,-0.83 -1.34,-0.88 -1.3,-0.92 -1.27,-0.96 -1.23,-1.01 -1.2,-1.05 -1.17,-1.08 -1.13,-1.13 -1.08,-1.17 -1.05,-1.2 -1.01,-1.23 -0.96,-1.27 -0.92,-1.31 -0.88,-1.33 -0.83,-1.36 -0.78,-1.39 -0.74,-1.41 -0.68,-1.44 -0.64,-1.47 -0.59,-1.48 -0.53,-1.5 -0.49,-1.52 -0.43,-1.53 -0.38,-1.55 -0.33,-1.56 -0.28,-1.57 -0.22,-1.58 -0.16,-1.59 -0.12,-1.59 -0.06,-1.59 v -1.59 l 0.05,-1.6 0.1,-1.59 0.16,-1.58 0.21,-1.58 0.27,-1.58 0.31,-1.56 0.38,-1.55 0.42,-1.54 0.47,-1.52 0.53,-1.5 0.58,-1.49 0.63,-1.46 0.68,-1.45 0.72,-1.42 0.78,-1.39 0.82,-1.37 0.87,-1.34 0.91,-1.3 0.95,-1.28 1,-1.24 1.04,-1.21 1.08,-1.17 1.13,-1.14 1.15,-1.09 1.2,-1.06 1.23,-1.01 1.26,-0.97 1.3,-0.93 1.33,-0.88 1.35,-0.84 1.39,-0.79 1.41,-0.75 1.43,-0.69 1.46,-0.65 1.48,-0.6 1.49,-0.54 1.52,-0.5 1.53,-0.44 1.55,-0.39 1.56,-0.34 1.56,-0.28 1.58,-0.23 1.59,-0.18 1.59,-0.12 1.59,-0.07 1.59,-0.02 1.6,0.04 1.59,0.09 1.59,0.15 1.58,0.2 1.57,0.26 1.57,0.31 1.55,0.36 1.54,0.41 1.52,0.47 1.51,0.52 1.49,0.56 1.47,0.62 1.45,0.67 1.42,0.72 1.4,0.77 1.37,0.81 1.34,0.86 1.32,0.9 1.28,0.95 1.25,0.99 1.21,1.03 1.18,1.08 1.14,1.11 1.11,1.15 1.06,1.19 1.02,1.22 0.98,1.26 0.94,1.29 0.89,1.32 0.85,1.35 0.8,1.38 0.75,1.41 0.7,1.43 0.66,1.45 0.61,1.48 0.55,1.49 0.51,1.51 0.45,1.53 0.4,1.55 0.35,1.55 0.29,1.57 0.24,1.57 0.19,1.59 0.13,1.59 0.08,1.59 0.03,1.59 -0.03,1.6 -0.09,1.59 -0.13,1.59 -0.2,1.58 -0.24,1.58 -0.3,1.56 -0.35,1.56 -0.41,1.54 -0.45,1.53 -0.51,1.51 -0.56,1.49 -0.61,1.47 -0.66,1.46 -0.71,1.42 -0.75,1.41 -0.81,1.37 -0.85,1.35 -0.89,1.32 -0.94,1.29 -0.99,1.26 -1.02,1.22 -1.07,1.18 -1.1,1.15 -1.15,1.11 -1.18,1.07 -1.22,1.03 -1.25,0.99 -1.28,0.94 -1.32,0.9 -1.35,0.86 -1.37,0.81 -1.4,0.76 -1.43,0.71 -1.44,0.67 -1.48,0.61 -1.49,0.57 -1.51,0.51 -1.52,0.46 -0.44,-1.55 -0.45,-1.56 -0.44,-1.55 -0.44,-1.56 -0.44,-1.55 -0.44,-1.56 -0.45,-1.55 -0.44,-1.56 -0.44,-1.55 -0.44,-1.56 -0.45,-1.55 -0.44,-1.56 -0.44,-1.55 -0.44,-1.56 -0.44,-1.55 -0.45,-1.56 -0.44,-1.55 -0.44,-1.56 -0.44,-1.55 -0.45,-1.56 -0.44,-1.55 -0.44,-1.56 -0.44,-1.55 -0.44,-1.55 -0.45,-1.56 -0.44,-1.55 -0.44,-1.56 -0.44,-1.55 z"
             style="fill:#f0f0f0;fill-opacity:1;fill-rule:nonzero;stroke:none"
             id="path131" />
          <path
             d="m 225.04,206.71 0.44,1.56 0.44,1.55 0.44,1.56 0.44,1.55 0.45,1.56 0.44,1.55 0.44,1.55 0.44,1.56 0.44,1.55 0.45,1.56 0.44,1.55 0.44,1.56 0.44,1.55 0.45,1.56 0.44,1.55 0.44,1.56 0.44,1.55 0.44,1.56 0.45,1.55 0.44,1.56 0.44,1.55 0.44,1.56 0.45,1.55 0.44,1.56 0.44,1.55 0.44,1.56 0.44,1.55 0.45,1.56 0.44,1.55 -1.57,0.42 -1.58,0.36 -1.6,0.31 -1.6,0.25 -1.61,0.2 -1.62,0.14 -1.62,0.08 -1.62,0.03 v -1.62 -1.61 -1.62 -1.62 -1.61 -1.62 -1.61 -1.62 -1.62 -1.61 -1.62 -1.62 -1.61 -1.62 -1.62 -1.61 -1.62 -1.62 -1.61 -1.62 -1.62 -1.61 -1.62 -1.62 -1.61 -1.62 -1.62 -1.61 z"
             style="fill:#f76f5c;fill-opacity:1;fill-rule:nonzero;stroke:none"
             id="path133" />
          <text
             transform="scale(1,-1)"
             style="font-variant:normal;font-weight:normal;font-size:6px;font-family:Helvetica;-inkscape-font-specification:Helvetica;writing-mode:lr-tb;fill:#000000;fill-opacity:1;fill-rule:nonzero;stroke:none"
             id="text137"
             x="201.05"
             y="-254.5"><tspan
               x="201.05 204.386 206.054 209.39 212.726"
               y="-254.5"
               sodipodi:role="line"
               id="tspan135">7.35%</tspan></text>
          <text
             transform="scale(1,-1)"
             style="font-variant:normal;font-weight:normal;font-size:6px;font-family:Helvetica;-inkscape-font-specification:Helvetica;writing-mode:lr-tb;fill:#000000;fill-opacity:1;fill-rule:nonzero;stroke:none"
             id="text141"
             x="217.41692"
             y="-179.19231"><tspan
               x="217.41692 220.75291 224.08891 225.75691 229.09291 232.42891"
               y="-179.19231"
               sodipodi:role="line"
               id="tspan139">88.24%</tspan></text>
          <text
             transform="scale(1,-1)"
             style="font-variant:normal;font-weight:normal;font-size:6px;font-family:Helvetica;-inkscape-font-specification:Helvetica;writing-mode:lr-tb;fill:#000000;fill-opacity:1;fill-rule:nonzero;stroke:none"
             id="text145"
             x="227.67999"
             y="-254.99002"><tspan
               x="227.67999 231.01601 232.68401 236.02 239.356"
               y="-254.99002"
               sodipodi:role="line"
               id="tspan143">4.41%</tspan></text>
        </g>
      </g>
      <g
         id="g147" />
      <g
         id="g149">
        <g
           id="g151"
           clip-path="url(#clipPath155)">
          <path
             d="m 225.04,66.82 v 1.62 1.61 1.62 1.62 1.61 1.62 1.62 1.61 1.62 1.62 1.61 1.62 1.62 1.61 1.62 1.62 1.61 1.62 1.62 1.61 1.62 1.61 1.62 1.62 1.61 1.62 1.62 1.61 1.62 l -1.64,-0.03 -1.64,-0.08 -1.63,-0.15 -1.62,-0.2 -1.62,-0.25 -1.6,-0.31 -1.6,-0.37 -1.58,-0.43 -1.56,-0.47 -1.55,-0.54 -1.53,-0.58 -1.5,-0.64 -1.49,-0.69 -1.46,-0.75 -1.43,-0.79 -1.4,-0.84 -1.37,-0.9 -1.34,-0.93 -1.31,-0.99 -1.27,-1.03 -1.24,-1.07 -1.19,-1.12 -1.16,-1.16 -1.12,-1.19 -1.07,-1.24 -1.03,-1.27 -0.98,-1.31 -0.94,-1.34 -0.89,-1.37 -0.85,-1.4 1.4,-0.81 1.4,-0.81 1.4,-0.81 1.4,-0.81 1.4,-0.8 1.4,-0.81 1.4,-0.81 1.4,-0.81 1.4,-0.81 1.4,-0.81 1.4,-0.8 1.4,-0.81 1.4,-0.81 1.4,-0.81 1.4,-0.81 1.4,-0.8 1.4,-0.81 1.4,-0.81 1.4,-0.81 1.4,-0.81 1.4,-0.8 1.4,-0.81 1.4,-0.81 1.4,-0.81 1.4,-0.81 1.4,-0.81 1.4,-0.8 1.41,-0.81 z"
             style="fill:#641a80;fill-opacity:1;fill-rule:nonzero;stroke:none"
             id="path157" />
          <path
             d="m 225.04,66.82 -1.4,0.81 -1.41,0.81 -1.4,0.8 -1.4,0.81 -1.4,0.81 -1.4,0.81 -1.4,0.81 -1.4,0.81 -1.4,0.8 -1.4,0.81 -1.4,0.81 -1.4,0.81 -1.4,0.81 -1.4,0.8 -1.4,0.81 -1.4,0.81 -1.4,0.81 -1.4,0.81 -1.4,0.8 -1.4,0.81 -1.4,0.81 -1.4,0.81 -1.4,0.81 -1.4,0.81 -1.4,0.8 -1.4,0.81 -1.4,0.81 -1.4,0.81 -1.4,0.81 -0.77,-1.39 -0.72,-1.42 -0.68,-1.43 -0.62,-1.46 -0.58,-1.49 -0.52,-1.49 -0.48,-1.52 -0.42,-1.53 -0.37,-1.55 -0.32,-1.55 -0.26,-1.57 -0.22,-1.57 -0.15,-1.58 -0.11,-1.59 -0.05,-1.59 v -1.58 l 0.06,-1.59 0.11,-1.59 0.16,-1.58 0.22,-1.57 0.27,-1.56 0.32,-1.56 0.38,-1.54 0.43,-1.53 0.48,-1.52 0.53,-1.49 0.58,-1.48 0.63,-1.46 0.68,-1.44 0.73,-1.41 0.77,-1.38 0.82,-1.36 0.87,-1.33 0.91,-1.3 0.96,-1.27 1,-1.24 1.04,-1.2 1.08,-1.17 1.11,-1.12 1.16,-1.09 1.19,-1.05 1.23,-1.01 1.26,-0.97 1.29,-0.92 1.32,-0.88 1.36,-0.83 1.38,-0.79 1.4,-0.74 1.43,-0.69 1.45,-0.65 1.48,-0.59 1.49,-0.55 1.51,-0.49 1.52,-0.44 1.54,-0.39 1.56,-0.34 1.56,-0.28 1.57,-0.23 1.58,-0.18 1.58,-0.12 1.59,-0.07 1.59,-0.02 1.59,0.04 1.58,0.09 1.58,0.14 1.58,0.2 1.57,0.25 1.56,0.31 1.54,0.35 1.54,0.41 1.52,0.46 1.5,0.52 1.49,0.56 1.46,0.61 1.45,0.66 1.42,0.72 1.39,0.75 1.37,0.81 1.34,0.85 1.32,0.9 1.28,0.94 1.24,0.98 1.22,1.02 1.18,1.07 1.14,1.1 1.1,1.15 1.07,1.17 1.02,1.22 0.98,1.25 0.94,1.28 0.9,1.31 0.85,1.34 0.8,1.37 0.76,1.4 0.71,1.42 0.66,1.44 0.61,1.47 0.56,1.49 0.51,1.5 0.46,1.52 0.41,1.54 0.36,1.54 0.3,1.56 0.25,1.57 0.2,1.58 0.14,1.58 0.09,1.58 0.04,1.59 -0.02,1.59 -0.07,1.59 -0.13,1.58 -0.18,1.58 -0.23,1.57 -0.29,1.56 -0.33,1.56 -0.4,1.54 -0.44,1.52 -0.49,1.51 -1.53,-0.53 -1.53,-0.53 -1.52,-0.53 -1.53,-0.52 -1.53,-0.53 -1.53,-0.53 -1.53,-0.53 -1.52,-0.53 -1.53,-0.53 -1.53,-0.53 -1.53,-0.52 -1.52,-0.53 -1.53,-0.53 -1.53,-0.53 -1.53,-0.53 -1.52,-0.53 -1.53,-0.53 -1.53,-0.52 -1.53,-0.53 -1.53,-0.53 -1.52,-0.53 -1.53,-0.53 -1.53,-0.53 -1.53,-0.53 -1.52,-0.53 -1.53,-0.52 -1.53,-0.53 -1.53,-0.53 z"
             style="fill:#f0f0f0;fill-opacity:1;fill-rule:nonzero;stroke:none"
             id="path159" />
          <path
             d="m 225.04,66.82 1.52,0.53 1.53,0.53 1.53,0.53 1.53,0.52 1.52,0.53 1.53,0.53 1.53,0.53 1.53,0.53 1.52,0.53 1.53,0.53 1.53,0.53 1.53,0.52 1.53,0.53 1.52,0.53 1.53,0.53 1.53,0.53 1.53,0.53 1.52,0.53 1.53,0.52 1.53,0.53 1.53,0.53 1.52,0.53 1.53,0.53 1.53,0.53 1.53,0.53 1.53,0.52 1.52,0.53 1.53,0.53 1.53,0.53 -0.55,1.51 -0.61,1.5 -0.66,1.47 -0.7,1.45 -0.76,1.42 -0.8,1.4 -0.85,1.37 -0.9,1.34 -0.94,1.3 -0.99,1.28 -1.03,1.24 -1.08,1.2 -1.11,1.16 -1.15,1.13 -1.19,1.08 -1.23,1.05 -1.26,1 -1.3,0.96 -1.33,0.91 -1.36,0.87 -1.39,0.81 -1.41,0.77 -1.44,0.73 -1.47,0.67 -1.49,0.62 -1.5,0.57 -1.53,0.51 -1.54,0.47 -1.56,0.41 -1.57,0.36 -1.59,0.3 -1.59,0.25 -1.6,0.19 -1.6,0.14 -1.61,0.08 -1.61,0.03 v -1.62 -1.61 -1.62 -1.62 -1.61 V 104 102.38 100.77 99.15 97.54 95.92 94.3 92.69 91.07 89.45 87.84 86.22 84.6 82.99 81.37 79.75 78.14 76.52 74.9 73.29 71.67 70.05 68.44 Z"
             style="fill:#f76f5c;fill-opacity:1;fill-rule:nonzero;stroke:none"
             id="path161" />
          <text
             transform="scale(1,-1)"
             style="font-variant:normal;font-weight:normal;font-size:6px;font-family:Helvetica;-inkscape-font-specification:Helvetica;writing-mode:lr-tb;fill:#000000;fill-opacity:1;fill-rule:nonzero;stroke:none"
             id="text165"
             x="182.39999"
             y="-108.44"><tspan
               x="182.39999 185.73599 189.07201 190.74001 194.076 197.412"
               y="-108.44"
               sodipodi:role="line"
               id="tspan163">16.67%</tspan></text>
          <text
             transform="scale(1,-1)"
             style="font-variant:normal;font-weight:normal;font-size:6px;font-family:Helvetica;-inkscape-font-specification:Helvetica;writing-mode:lr-tb;fill:#000000;fill-opacity:1;fill-rule:nonzero;stroke:none"
             id="text169"
             x="217.25"
             y="-37.599998"><tspan
               x="217.25 220.586 223.922 225.59 228.92599 232.26199"
               y="-37.599998"
               sodipodi:role="line"
               id="tspan167">63.64%</tspan></text>
          <text
             transform="scale(1,-1)"
             style="font-variant:normal;font-weight:normal;font-size:6px;font-family:Helvetica;-inkscape-font-specification:Helvetica;writing-mode:lr-tb;fill:#000000;fill-opacity:1;fill-rule:nonzero;stroke:none"
             id="text173"
             x="256.92001"
             y="-101.43"><tspan
               x="256.92001 260.25601 263.59201 265.26001 268.59601"
               y="-101.43"
               sodipodi:role="line"
               id="tspan171">19.7%</tspan></text>
        </g>
      </g>
      <g
         id="g175" />
      <g
         id="g177">
        <g
           id="g179"
           clip-path="url(#clipPath183)">
          <path
             d="m 347.72,206.71 v 1.62 l -0.01,1.61 v 1.62 1.62 1.61 1.62 1.62 1.61 1.62 1.62 1.61 l -0.01,1.62 v 1.62 1.61 1.62 1.62 1.61 1.62 1.62 1.61 1.62 l -0.01,1.62 v 1.61 1.62 1.61 1.62 1.62 1.61 1.62 l -1.61,-0.03 -1.6,-0.08 -1.6,-0.14 -1.59,-0.19 -1.58,-0.25 -1.58,-0.3 -1.56,-0.35 -1.55,-0.41 -1.54,-0.46 -1.52,-0.51 -1.5,-0.57 -1.48,-0.61 -1.46,-0.67 -1.43,-0.72 -1.41,-0.76 -1.39,-0.81 -1.35,-0.86 -1.32,-0.91 -1.3,-0.94 -1.26,-1 -1.22,-1.03 -1.19,-1.08 -1.15,-1.12 -1.11,-1.15 -1.07,-1.19 -1.03,-1.23 -0.99,-1.27 -0.95,-1.29 -0.89,-1.33 -0.86,-1.36 -0.8,-1.38 -0.76,-1.42 -0.71,-1.43 -0.66,-1.47 -0.61,-1.48 -0.56,-1.5 -0.51,-1.52 -0.45,-1.54 1.56,-0.43 1.55,-0.43 1.56,-0.44 1.56,-0.43 1.56,-0.43 1.56,-0.43 1.55,-0.43 1.56,-0.43 1.56,-0.44 1.56,-0.43 1.55,-0.43 1.56,-0.43 1.56,-0.43 1.56,-0.43 1.56,-0.44 1.55,-0.43 1.56,-0.43 1.56,-0.43 1.56,-0.43 1.56,-0.43 1.55,-0.44 1.56,-0.43 1.56,-0.43 1.56,-0.43 1.55,-0.43 1.56,-0.43 1.56,-0.44 1.56,-0.43 z"
             style="fill:#641a80;fill-opacity:1;fill-rule:nonzero;stroke:none"
             id="path185" />
          <path
             d="m 347.72,206.71 -1.56,0.43 -1.56,0.43 -1.56,0.44 -1.56,0.43 -1.55,0.43 -1.56,0.43 -1.56,0.43 -1.56,0.43 -1.55,0.44 -1.56,0.43 -1.56,0.43 -1.56,0.43 -1.56,0.43 -1.55,0.43 -1.56,0.44 -1.56,0.43 -1.56,0.43 -1.56,0.43 -1.55,0.43 -1.56,0.43 -1.56,0.44 -1.56,0.43 -1.55,0.43 -1.56,0.43 -1.56,0.43 -1.56,0.43 -1.56,0.44 -1.55,0.43 -1.56,0.43 -0.4,-1.54 -0.35,-1.55 -0.29,-1.56 -0.24,-1.58 -0.19,-1.57 -0.13,-1.59 -0.08,-1.59 -0.02,-1.58 0.02,-1.59 0.09,-1.59 0.13,-1.59 0.19,-1.57 0.25,-1.57 0.29,-1.57 0.35,-1.55 0.4,-1.54 0.46,-1.52 0.5,-1.51 0.56,-1.49 0.6,-1.47 0.66,-1.44 0.7,-1.43 0.75,-1.4 0.8,-1.37 0.85,-1.35 0.89,-1.32 0.93,-1.28 0.98,-1.26 1.02,-1.22 1.06,-1.18 1.1,-1.15 1.14,-1.11 1.17,-1.07 1.21,-1.03 1.25,-0.99 1.27,-0.94 1.31,-0.91 1.34,-0.85 1.37,-0.82 1.39,-0.76 1.42,-0.72 1.44,-0.66 1.47,-0.62 1.48,-0.57 1.5,-0.52 1.52,-0.47 1.54,-0.41 1.55,-0.37 1.55,-0.31 1.57,-0.25 1.58,-0.21 1.58,-0.15 1.59,-0.1 1.59,-0.04 1.59,0.01 1.59,0.07 1.58,0.12 1.58,0.17 1.57,0.23 1.57,0.27 1.55,0.34 1.55,0.38 1.53,0.44 1.51,0.49 1.49,0.53 1.48,0.59 1.45,0.64 1.44,0.69 1.41,0.74 1.38,0.78 1.36,0.83 1.32,0.88 1.3,0.92 1.26,0.96 1.23,1.01 1.2,1.04 1.16,1.09 1.12,1.13 1.09,1.16 1.04,1.2 1,1.23 0.96,1.27 0.92,1.3 0.87,1.33 0.82,1.36 0.78,1.38 0.74,1.41 0.68,1.44 0.64,1.46 0.58,1.47 0.54,1.5 0.48,1.51 0.43,1.53 0.38,1.55 0.33,1.55 0.27,1.57 0.22,1.57 0.17,1.58 0.12,1.59 0.06,1.59 v 1.59 l -0.04,1.59 -0.11,1.58 -0.15,1.59 -0.21,1.57 -0.26,1.57 -0.32,1.56 -0.36,1.54 -0.42,1.54 -0.48,1.51 -0.52,1.51 -0.57,1.48 -0.62,1.46 -0.68,1.44 -0.72,1.42 -1.43,-0.76 -1.42,-0.76 -1.43,-0.75 -1.43,-0.76 -1.43,-0.76 -1.43,-0.76 -1.43,-0.75 -1.42,-0.76 -1.43,-0.76 -1.43,-0.76 -1.43,-0.75 -1.43,-0.76 -1.42,-0.76 -1.43,-0.76 -1.43,-0.75 -1.43,-0.76 -1.43,-0.76 -1.42,-0.76 -1.43,-0.75 -1.43,-0.76 -1.43,-0.76 -1.43,-0.76 -1.42,-0.75 -1.43,-0.76 -1.43,-0.76 -1.43,-0.76 -1.43,-0.75 -1.43,-0.76 z"
             style="fill:#f0f0f0;fill-opacity:1;fill-rule:nonzero;stroke:none"
             id="path187" />
          <path
             d="m 347.72,206.71 1.42,0.76 1.43,0.76 1.43,0.75 1.43,0.76 1.43,0.76 1.43,0.76 1.42,0.75 1.43,0.76 1.43,0.76 1.43,0.76 1.43,0.75 1.42,0.76 1.43,0.76 1.43,0.76 1.43,0.75 1.43,0.76 1.42,0.76 1.43,0.76 1.43,0.75 1.43,0.76 1.43,0.76 1.42,0.76 1.43,0.75 1.43,0.76 1.43,0.76 1.43,0.76 1.43,0.75 1.42,0.76 1.43,0.76 -0.77,1.39 -0.81,1.36 -0.86,1.33 -0.9,1.31 -0.95,1.27 -0.99,1.24 -1.03,1.21 -1.07,1.17 -1.11,1.13 -1.15,1.09 -1.19,1.06 -1.22,1.01 -1.25,0.98 -1.29,0.93 -1.31,0.88 -1.35,0.84 -1.37,0.8 -1.4,0.75 -1.42,0.7 -1.45,0.65 -1.47,0.6 -1.49,0.55 -1.5,0.5 -1.52,0.45 -1.54,0.4 -1.55,0.35 -1.56,0.29 -1.57,0.24 -1.57,0.19 -1.58,0.13 -1.59,0.08 -1.58,0.03 v -1.62 -1.61 -1.62 -1.62 -1.61 -1.62 -1.61 -1.62 -1.62 -1.61 -1.62 -1.62 -1.61 -1.62 -1.62 -1.61 -1.62 -1.62 -1.61 -1.62 -1.62 -1.61 -1.62 -1.62 -1.61 -1.62 -1.62 -1.61 z"
             style="fill:#f76f5c;fill-opacity:1;fill-rule:nonzero;stroke:none"
             id="path189" />
          <text
             transform="scale(1,-1)"
             style="font-variant:normal;font-weight:normal;font-size:6px;font-family:Helvetica;-inkscape-font-specification:Helvetica;writing-mode:lr-tb;fill:#000000;fill-opacity:1;fill-rule:nonzero;stroke:none"
             id="text193"
             x="295.82852"
             y="-240.97934"><tspan
               x="295.82852 299.16452 302.50052 304.16852 307.50452 310.84052"
               y="-240.97934"
               sodipodi:role="line"
               id="tspan191">20.69%</tspan></text>
          <text
             transform="scale(1,-1)"
             style="font-variant:normal;font-weight:normal;font-size:6px;font-family:Helvetica;-inkscape-font-specification:Helvetica;writing-mode:lr-tb;fill:#000000;fill-opacity:1;fill-rule:nonzero;stroke:none"
             id="text197"
             x="341.18588"
             y="-178.65593"><tspan
               x="341.18588 344.52188 347.85788 349.52588 352.86188 356.19788"
               y="-178.65593"
               sodipodi:role="line"
               id="tspan195">62.07%</tspan></text>
          <text
             transform="scale(1,-1)"
             style="font-variant:normal;font-weight:normal;font-size:6px;font-family:Helvetica;-inkscape-font-specification:Helvetica;writing-mode:lr-tb;fill:#000000;fill-opacity:1;fill-rule:nonzero;stroke:none"
             id="text201"
             x="376.31668"
             y="-246.20201"><tspan
               x="376.31668 379.65268 382.98868 384.65668 387.99268 391.32867"
               y="-246.20201"
               sodipodi:role="line"
               id="tspan199">17.24%</tspan></text>
        </g>
      </g>
      <g
         id="g203" />
      <g
         id="g205">
        <g
           id="g207"
           clip-path="url(#clipPath211)">
          <path
             d="m 347.72,66.82 v 1.62 l -0.01,1.61 v 1.62 1.62 1.61 1.62 1.62 1.61 1.62 1.62 1.61 l -0.01,1.62 v 1.62 1.61 1.62 1.62 1.61 1.62 1.62 1.61 1.62 l -0.01,1.61 v 1.62 1.62 1.61 1.62 1.62 1.61 1.62 l -1.63,-0.03 -1.62,-0.08 -1.62,-0.15 -1.62,-0.19 -1.6,-0.26 -1.6,-0.31 -1.58,-0.36 -1.58,-0.42 -1.55,-0.47 -1.54,-0.53 -1.52,-0.58 -1.5,-0.63 -1.47,-0.69 -1.45,-0.73 -1.43,-0.79 -1.39,-0.83 -1.37,-0.88 -1.34,-0.93 -1.3,-0.98 -1.27,-1.02 -1.23,-1.06 -1.19,-1.1 -1.16,-1.15 1.16,-1.13 1.16,-1.12 1.16,-1.13 1.16,-1.13 1.15,-1.13 1.16,-1.13 1.16,-1.12 1.16,-1.13 1.16,-1.13 1.15,-1.13 1.16,-1.13 1.16,-1.12 1.16,-1.13 1.16,-1.13 1.15,-1.13 1.16,-1.13 1.16,-1.12 1.16,-1.13 1.16,-1.13 1.15,-1.13 1.16,-1.13 1.16,-1.12 1.16,-1.13 1.16,-1.13 1.15,-1.13 1.16,-1.13 1.16,-1.12 1.16,-1.13 z"
             style="fill:#641a80;fill-opacity:1;fill-rule:nonzero;stroke:none"
             id="path213" />
          <path
             d="m 347.72,66.82 -1.16,1.13 -1.16,1.13 -1.16,1.12 -1.16,1.13 -1.15,1.13 -1.16,1.13 -1.16,1.13 -1.16,1.12 -1.16,1.13 -1.15,1.13 -1.16,1.13 -1.16,1.13 -1.16,1.12 -1.16,1.13 -1.15,1.13 -1.16,1.13 -1.16,1.13 -1.16,1.12 -1.16,1.13 -1.15,1.13 -1.16,1.13 -1.16,1.13 -1.16,1.12 -1.16,1.13 -1.15,1.13 -1.16,1.13 -1.16,1.13 -1.16,1.12 -1.16,1.13 -1.08,-1.15 -1.05,-1.2 -1.01,-1.23 -0.97,-1.26 -0.92,-1.29 -0.88,-1.33 -0.83,-1.35 -0.79,-1.38 -0.74,-1.41 -0.69,-1.43 -0.65,-1.45 -0.59,-1.48 -0.54,-1.49 -0.49,-1.51 -0.44,-1.53 -0.39,-1.54 -0.34,-1.55 -0.28,-1.57 -0.23,-1.57 -0.18,-1.58 -0.12,-1.59 -0.07,-1.58 -0.01,-1.59 0.04,-1.59 0.09,-1.59 0.15,-1.58 0.2,-1.58 0.25,-1.57 0.3,-1.56 0.36,-1.54 0.42,-1.54 0.46,-1.52 0.51,-1.5 0.57,-1.49 0.61,-1.47 0.67,-1.44 0.71,-1.42 0.76,-1.4 0.81,-1.36 0.85,-1.34 0.9,-1.32 0.94,-1.28 0.99,-1.24 1.03,-1.22 1.06,-1.17 1.11,-1.14 1.15,-1.11 1.18,-1.06 1.21,-1.02 1.26,-0.98 1.28,-0.94 1.31,-0.89 1.35,-0.85 1.37,-0.8 1.4,-0.76 1.42,-0.71 1.45,-0.66 1.47,-0.61 1.48,-0.55 1.51,-0.51 1.52,-0.46 1.54,-0.41 1.55,-0.35 1.56,-0.3 1.57,-0.25 1.58,-0.19 1.58,-0.14 1.59,-0.09 1.59,-0.03 1.58,0.02 1.59,0.08 1.59,0.12 1.58,0.19 1.57,0.23 1.56,0.29 1.55,0.34 1.54,0.4 1.53,0.44 1.51,0.5 1.49,0.55 1.47,0.6 1.45,0.65 1.43,0.69 1.4,0.75 1.38,0.79 1.35,0.84 1.32,0.88 1.29,0.93 1.26,0.97 1.23,1.02 1.19,1.05 1.15,1.1 1.11,1.13 1.08,1.17 1.04,1.2 0.99,1.24 0.95,1.28 0.91,1.3 0.86,1.34 0.82,1.36 0.77,1.39 0.73,1.41 0.67,1.44 0.63,1.46 0.57,1.48 0.53,1.5 0.47,1.52 0.42,1.53 0.38,1.55 0.31,1.56 0.27,1.56 0.21,1.58 0.16,1.58 0.1,1.59 0.05,1.59 v 1.58 l -0.06,1.59 -0.11,1.59 -0.16,1.58 -0.22,1.57 -0.27,1.57 -0.33,1.56 -0.38,1.54 -0.42,1.53 -0.49,1.52 -0.53,1.49 -0.58,1.48 -0.63,1.46 -0.68,1.44 -0.73,1.41 -0.78,1.39 -0.82,1.35 -0.87,1.34 -0.92,1.3 -0.95,1.26 -1,1.24 -1.04,1.2 -1.08,1.17 -1.12,1.12 -1.16,1.09 -1.2,1.05 -1.22,1.01 -1.27,0.97 -1.29,0.92 -1.33,0.88 -1.35,0.83 -1.38,0.79 -1.41,0.74 -1.43,0.69 -1.45,0.64 -0.63,-1.49 -0.63,-1.49 -0.63,-1.49 -0.62,-1.49 -0.63,-1.49 -0.63,-1.49 -0.63,-1.49 -0.63,-1.49 -0.62,-1.49 -0.63,-1.49 -0.63,-1.49 -0.63,-1.49 -0.63,-1.49 -0.62,-1.49 -0.63,-1.49 -0.63,-1.48 -0.63,-1.49 -0.63,-1.49 -0.62,-1.49 -0.63,-1.49 -0.63,-1.49 -0.63,-1.49 -0.63,-1.49 -0.62,-1.49 -0.63,-1.49 -0.63,-1.49 -0.63,-1.49 -0.63,-1.49 z"
             style="fill:#f0f0f0;fill-opacity:1;fill-rule:nonzero;stroke:none"
             id="path215" />
          <path
             d="m 347.72,66.82 0.62,1.49 0.63,1.49 0.63,1.49 0.63,1.49 0.63,1.49 0.62,1.49 0.63,1.49 0.63,1.49 0.63,1.49 0.63,1.49 0.62,1.49 0.63,1.49 0.63,1.49 0.63,1.48 0.63,1.49 0.62,1.49 0.63,1.49 0.63,1.49 0.63,1.49 0.63,1.49 0.62,1.49 0.63,1.49 0.63,1.49 0.63,1.49 0.63,1.49 0.62,1.49 0.63,1.49 0.63,1.49 0.63,1.49 -1.58,0.63 -1.6,0.58 -1.62,0.51 -1.64,0.46 -1.65,0.4 -1.67,0.33 -1.68,0.28 -1.68,0.21 -1.7,0.16 -1.69,0.09 -1.7,0.03 v -1.62 -1.61 -1.62 -1.62 -1.61 V 104 102.38 100.77 99.15 97.54 95.92 94.3 92.69 91.07 89.45 87.84 86.22 84.6 82.99 81.37 79.75 78.14 76.52 74.9 73.29 71.67 70.05 68.44 Z"
             style="fill:#f76f5c;fill-opacity:1;fill-rule:nonzero;stroke:none"
             id="path217" />
          <text
             transform="scale(1,-1)"
             style="font-variant:normal;font-weight:normal;font-size:6px;font-family:Helvetica;-inkscape-font-specification:Helvetica;writing-mode:lr-tb;fill:#000000;fill-opacity:1;fill-rule:nonzero;stroke:none"
             id="text221"
             x="314.78"
             y="-112.31"><tspan
               x="314.78 318.116 321.452 323.12 326.45599"
               y="-112.31"
               sodipodi:role="line"
               id="tspan219">12.7%</tspan></text>
          <text
             transform="scale(1,-1)"
             style="font-variant:normal;font-weight:normal;font-size:6px;font-family:Helvetica;-inkscape-font-specification:Helvetica;writing-mode:lr-tb;fill:#000000;fill-opacity:1;fill-rule:nonzero;stroke:none"
             id="text225"
             x="338.01001"
             y="-40.099998"><tspan
               x="338.01001 341.34601 344.68201 346.35001 349.686 353.022"
               y="-40.099998"
               sodipodi:role="line"
               id="tspan223">80.95%</tspan></text>
          <text
             transform="scale(1,-1)"
             style="font-variant:normal;font-weight:normal;font-size:6px;font-family:Helvetica;-inkscape-font-specification:Helvetica;writing-mode:lr-tb;fill:#000000;fill-opacity:1;fill-rule:nonzero;stroke:none"
             id="text229"
             x="352.14999"
             y="-115.09"><tspan
               x="352.14999 355.48599 357.15399 360.48999 363.82599"
               y="-115.09"
               sodipodi:role="line"
               id="tspan227">6.35%</tspan></text>
        </g>
      </g>
      <g
         id="g231" />
      <g
         id="g233">
        <g
           id="g235"
           clip-path="url(#clipPath239)" />
      </g>
      <g
         id="g241">
        <g
           id="g243"
           clip-path="url(#clipPath247)">
          <text
             transform="matrix(1,0,0,-1,78.73,130.79)"
             style="font-variant:normal;font-weight:normal;font-size:9px;font-family:Helvetica;-inkscape-font-specification:Helvetica;writing-mode:lr-tb;fill:#1a1a1a;fill-opacity:1;fill-rule:nonzero;stroke:none"
             id="text251"><tspan
               x="0 8.2259998 13.23 17.73 20.232 22.733999 25.236 30.24 35.243999 37.242001 42.245998"
               y="0"
               sodipodi:role="line"
               id="tspan249">West Indian</tspan></text>
        </g>
      </g>
      <g
         id="g253">
        <g
           id="g255"
           clip-path="url(#clipPath259)" />
      </g>
      <g
         id="g261">
        <g
           id="g263"
           clip-path="url(#clipPath267)" />
      </g>
      <g
         id="g269" />
      <g
         id="g271">
        <g
           id="g273"
           clip-path="url(#clipPath277)" />
      </g>
      <g
         id="g279">
        <g
           id="g281"
           clip-path="url(#clipPath285)">
          <text
             transform="matrix(1,0,0,-1,201.71,130.79)"
             style="font-variant:normal;font-weight:normal;font-size:9px;font-family:Helvetica;-inkscape-font-specification:Helvetica;writing-mode:lr-tb;fill:#1a1a1a;fill-opacity:1;fill-rule:nonzero;stroke:none"
             id="text289"><tspan
               x="0 6.0029998 11.007 15.507 18.009001 20.511 26.153999 31.158001 35.658001 37.655998 40.158001 42.155998"
               y="0"
               sodipodi:role="line"
               id="tspan287">East Pacific</tspan></text>
        </g>
      </g>
      <g
         id="g291">
        <g
           id="g293"
           clip-path="url(#clipPath297)" />
      </g>
      <g
         id="g299">
        <g
           id="g301"
           clip-path="url(#clipPath305)" />
      </g>
      <g
         id="g307" />
      <g
         id="g309">
        <g
           id="g311"
           clip-path="url(#clipPath315)" />
      </g>
      <g
         id="g317">
        <g
           id="g319"
           clip-path="url(#clipPath323)">
          <text
             transform="matrix(1,0,0,-1,323.28,130.79)"
             style="font-variant:normal;font-weight:normal;font-size:9px;font-family:Helvetica;-inkscape-font-specification:Helvetica;writing-mode:lr-tb;fill:#1a1a1a;fill-opacity:1;fill-rule:nonzero;stroke:none"
             id="text327"><tspan
               x="0 8.2259998 13.23 17.73 20.232 22.733999 28.377001 33.381001 37.881001 39.879002 42.381001 44.379002"
               y="0"
               sodipodi:role="line"
               id="tspan325">West Pacific</tspan></text>
        </g>
      </g>
      <g
         id="g329">
        <g
           id="g331"
           clip-path="url(#clipPath335)" />
      </g>
      <g
         id="g337">
        <g
           id="g339"
           clip-path="url(#clipPath343)" />
      </g>
      <g
         id="g345" />
      <g
         id="g347">
        <g
           id="g349"
           clip-path="url(#clipPath353)" />
      </g>
      <g
         id="g355">
        <g
           id="g357"
           clip-path="url(#clipPath361)">
          <text
             transform="matrix(1,0,0,-1,77.34,270.68)"
             style="font-variant:normal;font-weight:normal;font-size:9px;font-family:Helvetica;-inkscape-font-specification:Helvetica;writing-mode:lr-tb;fill:#1a1a1a;fill-opacity:1;fill-rule:nonzero;stroke:none"
             id="text365"><tspan
               x="0 6.0029998 11.007 15.507 18.009001 20.511 26.514 29.016001 31.014 36.018002 41.021999 43.523998 45.521999"
               y="0"
               sodipodi:role="line"
               id="tspan363">East Atlantic</tspan></text>
        </g>
      </g>
      <g
         id="g367">
        <g
           id="g369"
           clip-path="url(#clipPath373)" />
      </g>
      <g
         id="g375">
        <g
           id="g377"
           clip-path="url(#clipPath381)" />
      </g>
      <g
         id="g383" />
      <g
         id="g385">
        <g
           id="g387"
           clip-path="url(#clipPath391)" />
      </g>
      <g
         id="g393">
        <g
           id="g395"
           clip-path="url(#clipPath399)">
          <text
             transform="matrix(1,0,0,-1,198.91,270.68)"
             style="font-variant:normal;font-weight:normal;font-size:9px;font-family:Helvetica;-inkscape-font-specification:Helvetica;writing-mode:lr-tb;fill:#1a1a1a;fill-opacity:1;fill-rule:nonzero;stroke:none"
             id="text403"><tspan
               x="0 8.2259998 13.23 17.73 20.232 22.733999 28.737 31.239 33.237 38.241001 43.244999 45.747002 47.744999"
               y="0"
               sodipodi:role="line"
               id="tspan401">West Atlantic</tspan></text>
        </g>
      </g>
      <g
         id="g405">
        <g
           id="g407"
           clip-path="url(#clipPath411)" />
      </g>
      <g
         id="g413">
        <g
           id="g415"
           clip-path="url(#clipPath419)" />
      </g>
      <g
         id="g421" />
      <g
         id="g423">
        <g
           id="g425"
           clip-path="url(#clipPath429)" />
      </g>
      <g
         id="g431">
        <g
           id="g433"
           clip-path="url(#clipPath437)">
          <text
             transform="matrix(1,0,0,-1,325.2,270.68)"
             style="font-variant:normal;font-weight:normal;font-size:9px;font-family:Helvetica;-inkscape-font-specification:Helvetica;writing-mode:lr-tb;fill:#1a1a1a;fill-opacity:1;fill-rule:nonzero;stroke:none"
             id="text441"><tspan
               x="0 6.0029998 11.007 15.507 18.009001 20.511 23.013 28.017 33.021 35.019001 40.022999"
               y="0"
               sodipodi:role="line"
               id="tspan439">East Indian</tspan></text>
        </g>
      </g>
      <g
         id="g443">
        <g
           id="g445"
           clip-path="url(#clipPath449)" />
      </g>
      <g
         id="g451">
        <g
           id="g453"
           clip-path="url(#clipPath457)" />
      </g>
      <g
         id="g459" />
      <g
         id="g461" />
      <g
         id="g463" />
      <g
         id="g465" />
      <g
         id="g467" />
      <g
         id="g469" />
      <g
         id="g471" />
      <g
         id="g473" />
      <g
         id="g475" />
      <g
         id="g477" />
      <g
         id="g479" />
      <g
         id="g481" />
      <g
         id="g483" />
      <g
         id="g485" />
      <g
         id="g487" />
      <g
         id="g489" />
      <g
         id="g491" />
      <g
         id="g493" />
      <g
         id="g495" />
      <g
         id="g497" />
      <g
         id="g499" />
      <g
         id="g501" />
      <g
         id="g503" />
      <g
         id="g505" />
      <g
         id="g507" />
      <g
         id="g509" />
      <g
         id="g511" />
      <g
         id="g513" />
      <g
         id="g515" />
      <g
         id="g517" />
      <g
         id="g519" />
      <g
         id="g521" />
      <g
         id="g523" />
      <g
         id="g525" />
      <g
         id="g527" />
      <g
         id="g529" />
      <g
         id="g531" />
      <g
         id="g533" />
      <g
         id="g535" />
      <g
         id="g537" />
      <g
         id="g539" />
      <g
         id="g541" />
      <g
         id="g543" />
      <g
         id="g545" />
      <g
         id="g547" />
      <g
         id="g549" />
      <g
         id="g551" />
      <g
         id="g553" />
      <g
         id="g555" />
      <g
         id="g557" />
      <g
         id="g559" />
      <g
         id="g561" />
      <g
         id="g563" />
      <g
         id="g565" />
      <g
         id="g567" />
      <g
         id="g569" />
      <g
         id="g571" />
      <g
         id="g573" />
      <g
         id="g575" />
      <g
         id="g577" />
      <g
         id="g579" />
      <g
         id="g581" />
      <g
         id="g583" />
      <g
         id="g585" />
      <g
         id="g587" />
      <g
         id="g589" />
      <g
         id="g591" />
      <g
         id="g593" />
      <g
         id="g595" />
      <g
         id="g597" />
      <g
         id="g599" />
      <g
         id="g601" />
      <g
         id="g603" />
      <g
         id="g605" />
      <g
         id="g607" />
      <g
         id="g609" />
      <g
         id="g611" />
      <g
         id="g613" />
      <g
         id="g615" />
      <g
         id="g617" />
      <g
         id="g619" />
      <g
         id="g621" />
      <g
         id="g623" />
      <g
         id="g625" />
      <g
         id="g627" />
      <g
         id="g629" />
      <g
         id="g631" />
      <g
         id="g633" />
      <g
         id="g635" />
      <g
         id="g637" />
      <g
         id="g639" />
      <g
         id="g641" />
      <g
         id="g643" />
      <g
         id="g645" />
      <g
         id="g647" />
      <g
         id="g649" />
      <g
         id="g651">
        <text
           transform="matrix(1,0,0,-1,422.76,161.48)"
           style="font-variant:normal;font-weight:normal;font-size:11px;font-family:Helvetica;-inkscape-font-specification:Helvetica;writing-mode:lr-tb;fill:#000000;fill-opacity:1;fill-rule:nonzero;stroke:none"
           id="text655"><tspan
             x="0 7.9419999 14.058 20.174 22.615999 25.674 31.790001 34.848 37.905998 45.848 51.964001 58.080002 64.195999 70.311996"
             y="0"
             sodipodi:role="line"
             id="tspan653">Habitat Change</tspan></text>
      </g>
      <g
         id="g657" />
      <g
         id="g659" />
      <g
         id="g661" />
      <g
         id="g663" />
      <g
         id="g665">
        <path
           d="m 423.46,138.22 h 15.86 v 15.86 h -15.86 z"
           style="fill:#641a80;fill-opacity:1;fill-rule:nonzero;stroke:none"
           id="path667" />
      </g>
      <g
         id="g669" />
      <g
         id="g671" />
      <g
         id="g673" />
      <g
         id="g675">
        <path
           d="m 423.46,120.94 h 15.86 v 15.86 h -15.86 z"
           style="fill:#f0f0f0;fill-opacity:1;fill-rule:nonzero;stroke:none"
           id="path677" />
      </g>
      <g
         id="g679" />
      <g
         id="g681" />
      <g
         id="g683" />
      <g
         id="g685">
        <path
           d="m 423.46,103.66 h 15.86 v 15.86 h -15.86 z"
           style="fill:#f76f5c;fill-opacity:1;fill-rule:nonzero;stroke:none"
           id="path687" />
      </g>
      <g
         id="g689" />
      <g
         id="g691" />
      <g
         id="g693" />
      <g
         id="g695">
        <text
           transform="matrix(1,0,0,-1,445.52,142.92)"
           style="font-variant:normal;font-weight:normal;font-size:9px;font-family:Helvetica;-inkscape-font-specification:Helvetica;writing-mode:lr-tb;fill:#000000;fill-opacity:1;fill-rule:nonzero;stroke:none"
           id="text699"><tspan
             x="0 5.256 10.512 13.014 18.018 20.52 25.749001 30.753 32.750999 37.755001 40.257 46.755001 51.758999 56.763 59.264999 62.172001 67.176003 71.676003 74.178001 76.176003 81.18"
             y="0"
             sodipodi:role="line"
             id="tspan697">&gt;= 2 Fold Contraction</tspan></text>
      </g>
      <g
         id="g701" />
      <g
         id="g703" />
      <g
         id="g705" />
      <g
         id="g707" />
      <g
         id="g709">
        <text
           transform="matrix(1,0,0,-1,445.52,125.64)"
           style="font-variant:normal;font-weight:normal;font-size:9px;font-family:Helvetica;-inkscape-font-specification:Helvetica;writing-mode:lr-tb;fill:#000000;fill-opacity:1;fill-rule:nonzero;stroke:none"
           id="text713"><tspan
             x="0 5.256 7.7579999 12.762 15.264 20.493 25.497 27.495001 32.499001 35.000999 41.499001 46.502998 51.507 56.511002 61.514999"
             y="0"
             sodipodi:role="line"
             id="tspan711">&lt; 2 Fold Change</tspan></text>
      </g>
      <g
         id="g715" />
      <g
         id="g717" />
      <g
         id="g719" />
      <g
         id="g721" />
      <g
         id="g723">
        <text
           transform="matrix(1,0,0,-1,445.52,108.36)"
           style="font-variant:normal;font-weight:normal;font-size:9px;font-family:Helvetica;-inkscape-font-specification:Helvetica;writing-mode:lr-tb;fill:#000000;fill-opacity:1;fill-rule:nonzero;stroke:none"
           id="text727"><tspan
             x="0 5.256 10.512 13.014 18.018 20.52 25.749001 30.753 32.750999 37.755001 40.257 46.259998 50.759998 55.764 60.768002 65.772003 70.272003 72.269997 77.274002"
             y="0"
             sodipodi:role="line"
             id="tspan725">&gt;= 2 Fold Expansion</tspan></text>
      </g>
      <g
         id="g729" />
      <g
         id="g731" />
      <g
         id="g733" />
      <g
         id="g735" />
      <g
         id="g737" />
      <g
         id="g739" />
      <g
         id="g741" />
      <g
         id="g743" />
      <g
         id="g745" />
      <g
         id="g747" />
      <g
         id="g749" />
      <g
         id="g751" />
      <g
         id="g753" />
    </g>
  </g>
</svg>
